<svg width="834" height="208" viewBox="0 0 834 208" fill="none" xmlns="http://www.w3.org/2000/svg">
<path d="M78.4231 64.8878C83.7334 71.4741 86.3849 80.2765 86.3849 91.306V160.897H69.6141V93.6426C69.6141 86.0012 68.2044 80.0575 65.3703 75.826C62.5362 71.5727 57.7993 69.4551 51.1487 69.4551C46.0612 69.4551 40.2908 71.2185 33.852 74.7526C27.4169 78.2977 21.7158 82.7555 16.7671 88.1297V161.112H0V16.1696L16.7671 32.6865V71.3682C21.7158 66.5599 27.625 62.6315 34.4875 59.5939C41.3499 56.5381 47.8983 55.023 54.1179 55.023C65.0196 55.023 73.1202 58.3125 78.4231 64.8878Z" fill="#A28596"/>
<path d="M179.551 138.514C185.501 131.092 188.539 121.651 188.678 110.194C188.678 98.0327 185.851 88.2299 180.191 80.8075C174.53 73.3852 166.535 69.6648 156.203 69.6648C146.021 69.6648 137.953 73.3852 132.011 80.8075C126.069 88.2299 123.027 97.6676 122.884 109.124C122.884 121.158 125.715 130.913 131.372 138.416C137.033 145.9 145.031 149.657 155.356 149.657C165.545 149.657 173.609 145.937 179.551 138.514ZM199.613 137.879C195.438 146.017 189.453 152.384 181.677 156.981C173.894 161.566 164.833 163.87 154.509 163.87C144.604 163.87 135.974 161.566 128.615 156.981C121.259 152.384 115.631 145.937 111.742 137.675C107.848 129.398 105.905 119.946 105.905 109.343C106.048 98.8797 108.137 89.5771 112.165 81.4428C116.197 73.3158 122.037 66.9449 129.674 62.3447C137.318 57.7518 146.233 55.4481 156.419 55.4481C171.842 55.4481 183.938 60.3659 192.714 70.1942C201.483 80.0262 205.869 93.2864 205.869 109.975C205.869 120.449 203.787 129.741 199.613 137.879Z" fill="#A28596"/>
<path d="M220.729 155.169L226.032 143.08C235.652 147.885 244.921 150.287 253.84 150.287C261.619 150.287 267.769 148.951 272.305 146.26C276.83 143.577 279.091 139.824 279.091 135.016C279.091 127.381 270.607 120.733 253.625 115.078C243.716 111.817 235.652 107.79 229.429 102.978C223.206 98.1702 220.09 92.022 220.09 84.5157C220.09 75.4686 223.523 68.3639 230.386 63.1978C237.248 58.0281 246.62 55.4468 258.511 55.4468C263.317 55.4468 268.945 56.3012 275.377 57.9952C281.816 59.7002 286.878 61.8835 290.555 64.5815L285.249 76.0309C280.578 73.917 276.191 72.212 272.09 70.9451C267.989 69.6636 263.317 69.032 258.084 69.032C251.714 69.032 246.517 70.4121 242.482 73.1649C238.45 75.925 236.437 79.4956 236.437 83.884C236.573 87.5678 238.698 90.7405 242.803 93.424C246.905 96.122 252.774 98.7324 260.418 101.277C283.477 109.769 295.011 120.656 295.011 133.953C295.011 143.427 291.436 150.788 284.299 156.023C277.148 161.248 266.926 163.873 253.625 163.873C248.815 163.873 243.084 163.091 236.437 161.536C229.78 159.981 224.546 157.867 220.729 155.169Z" fill="#A28596"/>
<path d="M380.756 138.618C386.278 131.269 389.105 121.787 389.251 110.192C389.251 98.0304 386.523 88.2313 381.081 80.8089C375.629 73.3829 367.74 69.6626 357.408 69.6626C352.32 69.6626 347.861 70.4512 344.041 72.0028C340.217 73.5581 336.616 75.9604 333.216 79.2098V140.527C336.616 143.492 340.217 145.766 344.041 147.322C347.861 148.884 352.244 149.655 357.203 149.655C367.389 149.655 375.241 145.989 380.756 138.618ZM393.174 70.411C401.877 80.3817 406.23 93.5762 406.23 109.976C406.23 120.451 404.214 129.739 400.175 137.88C396.146 146.015 390.42 152.386 382.984 156.979C375.559 161.568 366.82 163.871 356.78 163.871C349.274 163.871 341.419 161.246 333.216 156.026V205.244L316.456 207.581V58.2132H326.423L330.031 65.4165C334.275 62.3096 338.804 59.8671 343.617 58.1073C348.42 56.333 352.956 55.4458 357.203 55.4458C372.48 55.4458 384.478 60.4366 393.174 70.411Z" fill="#A28596"/>
<path d="M426.59 58.2141H443.576V161.112H426.59V58.2141Z" fill="#A28596"/>
<path d="M610.401 64.8878C615.499 71.4741 618.045 80.2765 618.045 91.306V160.897H601.27V93.6426C601.27 86.0012 599.996 80.0575 597.461 75.826C594.901 71.5727 590.518 69.4551 584.299 69.4551C579.912 69.4551 574.854 71.0469 569.12 74.2269C563.386 77.4105 558.04 81.474 553.098 86.4247C553.233 87.4178 553.306 89.0497 553.306 91.306V160.897H536.543V93.6426C536.543 86.0012 535.272 80.0575 532.723 75.826C530.174 71.5727 525.791 69.4551 519.557 69.4551C515.039 69.4551 509.692 71.2185 503.546 74.7526C497.377 78.2977 491.829 82.7555 486.884 88.1297V161.112H470.11V58.2139H482.626L485.394 72.8542C490.343 67.7538 496.252 63.5187 503.122 60.1233C509.977 56.7279 516.445 55.023 522.53 55.023C529.465 55.023 535.235 56.5892 539.83 59.6998C544.428 62.8068 547.861 67.1915 550.122 72.8542C555.081 67.7538 560.95 63.5187 567.743 60.1233C574.544 56.7279 580.972 55.023 587.056 55.023C597.523 55.023 605.302 58.3125 610.401 64.8878Z" fill="#76AC8B"/>
<path d="M654.969 100.861H712.699C710.3 80.0578 700.957 69.6636 684.683 69.6636C675.914 69.6636 669.019 72.4602 664.001 78.0462C658.965 83.6431 655.966 91.2407 654.969 100.861ZM729.262 112.318H654.542C654.969 123.917 658.128 133.066 664.001 139.791C669.87 146.516 678.887 149.864 691.053 149.864C696.575 149.864 701.629 149.159 706.227 147.746C710.826 146.33 716.307 144.077 722.677 140.952L727.987 153.263C722.177 156.52 716.381 159.093 710.588 161.007C704.781 162.916 698.346 163.873 691.264 163.873C673.716 163.873 660.352 158.922 651.156 149.024C641.953 139.123 637.358 125.895 637.358 109.346C637.358 98.8821 639.228 89.5795 642.979 81.4452C646.723 73.3146 652.245 66.9473 659.538 62.3471C666.82 57.7506 675.414 55.4468 685.33 55.4468C700.322 55.4468 711.399 60.6859 718.543 71.1495C725.686 81.6241 729.262 95.3334 729.262 112.318Z" fill="#76AC8B"/>
<path d="M805.564 147.214C809.446 145.593 813.099 143.081 816.495 139.682V78.7956C809.702 72.7022 801.631 69.6646 792.299 69.6646C782.106 69.6646 774.254 73.3155 768.732 80.5882C763.221 87.8755 760.387 97.3241 760.252 108.92C760.252 121.223 762.973 131.092 768.418 138.514C773.863 145.936 781.756 149.657 792.091 149.657C797.171 149.657 801.671 148.839 805.564 147.214ZM833.47 15.9045V161.113H823.277L820.092 153.26C815.856 156.656 811.251 159.281 806.302 161.113C801.357 162.95 796.682 163.87 792.299 163.87C777.015 163.87 765.018 158.89 756.329 148.908C747.622 138.934 743.273 125.677 743.273 109.124C743.273 98.664 745.285 89.3614 749.321 81.2308C753.356 73.0965 759.076 66.7657 766.508 62.2422C773.94 57.7187 782.669 55.4478 792.723 55.4478C796.397 55.4478 800.331 56.167 804.505 57.569C808.665 58.9819 812.671 60.8987 816.495 63.301V33.2172L833.47 15.9045Z" fill="#76AC8B"/>
</svg>
